<?xml version="1.0" standalone="no"?>
<!DOCTYPE svg PUBLIC "-//W3C//DTD SVG 20010904//EN"
 "http://www.w3.org/TR/2001/REC-SVG-20010904/DTD/svg10.dtd">
<svg version="1.0" xmlns="http://www.w3.org/2000/svg"
 width="225.000000pt" height="225.000000pt" viewBox="0 0 225.000000 225.000000"
 preserveAspectRatio="xMidYMid meet">

<g transform="translate(0.000000,225.000000) scale(0.100000,-0.100000)"
fill="#000000" stroke="none">
<path d="M826 1765 c-13 -13 -48 -58 -79 -98 l-57 -74 0 -469 0 -469 71 -90
c39 -49 77 -93 84 -98 8 -4 170 -6 362 -5 l348 3 0 120 0 120 -420 5 -420 5
145 13 c80 8 153 16 163 19 16 4 17 31 17 378 0 347 -1 374 -17 378 -10 3 -83
11 -163 19 l-145 13 420 5 420 5 0 120 0 120 -353 3 -353 2 -23 -25z"/>
</g>
</svg>
