<?xml version="1.0" standalone="no"?>
<!DOCTYPE svg PUBLIC "-//W3C//DTD SVG 20010904//EN"
 "http://www.w3.org/TR/2001/REC-SVG-20010904/DTD/svg10.dtd">
<svg version="1.0" xmlns="http://www.w3.org/2000/svg"
 width="626.000000pt" height="626.000000pt" viewBox="0 0 626.000000 626.000000"
 preserveAspectRatio="xMidYMid meet">

<g transform="translate(0.000000,626.000000) scale(0.100000,-0.100000)"
fill="#000000" stroke="none">
<path d="M2950 5180 c-366 -51 -728 -210 -1009 -444 -42 -35 -121 -111 -176
-168 -341 -353 -518 -748 -557 -1241 -30 -382 65 -779 254 -1062 141 -212 402
-407 653 -488 344 -112 770 -53 1076 149 71 47 236 200 227 210 -3 3 -23 -3
-45 -14 -191 -98 -467 -86 -694 28 -114 58 -160 91 -265 192 -290 280 -429
656 -394 1062 32 371 195 704 481 981 227 220 460 360 760 459 242 80 311 91
569 90 207 0 233 -2 322 -26 54 -14 95 -22 93 -17 -9 13 -158 97 -245 137
-112 52 -279 105 -415 133 -91 18 -151 22 -340 25 -126 1 -259 -1 -295 -6z"/>
<path d="M3945 4773 c-262 -34 -550 -145 -791 -306 -88 -59 -230 -184 -220
-194 2 -2 45 11 97 29 92 32 98 33 264 33 160 0 175 -2 257 -28 154 -51 224
-100 403 -282 175 -178 217 -207 327 -224 265 -43 490 180 464 461 -18 196
-148 363 -354 455 -112 50 -307 74 -447 56z"/>
<path d="M4527 2924 c-163 -39 -254 -131 -428 -429 -169 -292 -261 -416 -430
-581 -321 -311 -713 -484 -1100 -484 -228 0 -466 64 -667 179 -37 21 -85 48
-107 61 -73 41 162 -181 263 -249 238 -160 490 -263 787 -322 156 -30 456 -38
614 -15 654 96 1223 472 1480 976 73 144 100 222 114 331 27 213 -72 421 -237
502 -96 47 -184 57 -289 31z"/>
</g>
</svg>
