<?xml version="1.0" standalone="no"?>
<!DOCTYPE svg PUBLIC "-//W3C//DTD SVG 20010904//EN"
 "http://www.w3.org/TR/2001/REC-SVG-20010904/DTD/svg10.dtd">
<svg version="1.0" xmlns="http://www.w3.org/2000/svg"
 width="251.000000pt" height="201.000000pt" viewBox="0 0 251.000000 201.000000"
 preserveAspectRatio="xMidYMid meet">

<g transform="translate(0.000000,201.000000) scale(0.100000,-0.100000)"
fill="#000000" stroke="none">
<path d="M0 1005 l0 -1005 1255 0 1255 0 0 1005 0 1005 -1255 0 -1255 0 0
-1005z m1482 277 l148 -85 -108 -63 -107 -62 -45 25 c-25 14 -59 34 -75 44
l-31 18 -77 -45 -77 -45 0 -83 0 -84 71 -41 c39 -23 76 -41 81 -41 6 0 58 27
115 60 58 33 107 60 109 60 2 0 4 -19 4 -42 l-1 -43 -109 -62 c-60 -35 -113
-63 -117 -63 -5 0 -55 27 -111 60 -57 33 -108 60 -114 60 -6 0 -36 -16 -68
-35 -32 -19 -60 -35 -64 -35 -4 0 -5 95 -4 211 l3 211 180 104 179 103 36 -21
c19 -11 101 -59 182 -106z m148 -355 l0 -153 -184 -106 -184 -106 -128 75
c-71 41 -130 76 -132 78 -2 1 13 13 32 25 l36 22 87 -50 c49 -28 93 -52 99
-54 7 -2 75 33 153 77 l140 80 1 111 0 110 38 22 c20 12 38 22 40 22 1 0 2
-69 2 -153z"/>
<path d="M1115 1236 l-140 -82 -3 -122 c-1 -67 0 -122 3 -122 3 0 19 7 35 15
30 15 30 16 30 104 l0 89 111 65 112 64 75 -44 75 -44 33 17 c18 10 32 19 31
20 -7 7 -213 124 -217 123 -3 0 -68 -37 -145 -83z"/>
</g>
</svg>
